HIERARCHY
ROOT Hips
{
	OFFSET 0.00000 0.00000 0.00000
	CHANNELS 6 Xposition Yposition Zposition Zrotation Yrotation Xrotation 
	JOINT LHipJoint
	{
		OFFSET 0 0 0
		CHANNELS 3 Zrotation Yrotation Xrotation
		JOINT LeftUpLeg
		{
			OFFSET 1.37590 -1.78394 0.89329
			CHANNELS 3 Zrotation Yrotation Xrotation
			JOINT LeftLeg
			{
				OFFSET 2.47928 -6.81178 0.00000
				CHANNELS 3 Zrotation Yrotation Xrotation
				JOINT LeftFoot
				{
					OFFSET 2.63345 -7.23535 0.00000
					CHANNELS 3 Zrotation Yrotation Xrotation
					JOINT LeftToeBase
					{
						OFFSET 0.23938 -0.65768 2.27012
						CHANNELS 3 Zrotation Yrotation Xrotation
						End Site
						{
							OFFSET 0.00000 -0.00000 1.18363
						}
					}
				}
			}
		}
	}
	JOINT RHipJoint
	{
		OFFSET 0 0 0
		CHANNELS 3 Zrotation Yrotation Xrotation
		JOINT RightUpLeg
		{
			OFFSET -1.33617 -1.78394 0.89329
			CHANNELS 3 Zrotation Yrotation Xrotation
			JOINT RightLeg
			{
				OFFSET -2.56922 -7.05888 0.00000
				CHANNELS 3 Zrotation Yrotation Xrotation
				JOINT RightFoot
				{
					OFFSET -2.56568 -7.04915 0.00000
					CHANNELS 3 Zrotation Yrotation Xrotation
					JOINT RightToeBase
					{
						OFFSET -0.27533 -0.75646 2.18105
						CHANNELS 3 Zrotation Yrotation Xrotation
						End Site
						{
							OFFSET -0.00000 -0.00000 1.15233
						}
					}
				}
			}
		}
	}
	JOINT LowerBack
	{
		OFFSET 0 0 0
		CHANNELS 3 Zrotation Yrotation Xrotation
		JOINT Spine
		{
			OFFSET 0.06190 2.15152 -0.00935
			CHANNELS 3 Zrotation Yrotation Xrotation
			JOINT Spine1
			{
				OFFSET 0.06334 2.15332 0.00872
				CHANNELS 3 Zrotation Yrotation Xrotation
				JOINT Neck
				{
					OFFSET 0 0 0
					CHANNELS 3 Zrotation Yrotation Xrotation
					JOINT Neck1
					{
						OFFSET -0.04202 1.66908 0.23524
						CHANNELS 3 Zrotation Yrotation Xrotation
						JOINT Head
						{
							OFFSET 0.07510 1.69357 -0.24440
							CHANNELS 3 Zrotation Yrotation Xrotation
							End Site
							{
								OFFSET 0.02556 1.71719 -0.11000
							}
						}
					}
				}
				JOINT LeftShoulder
				{
					OFFSET 0 0 0
					CHANNELS 3 Zrotation Yrotation Xrotation
					JOINT LeftArm
					{
						OFFSET 3.67168 1.26306 -0.41342
						CHANNELS 3 Zrotation Yrotation Xrotation
						JOINT LeftForeArm
						{
							OFFSET 4.68510 -0.00000 -0.00000
							CHANNELS 3 Zrotation Yrotation Xrotation
							JOINT LeftHand
							{
								OFFSET 3.39626 -0.00000 -0.00000
								CHANNELS 3 Zrotation Yrotation Xrotation
								JOINT LeftFingerBase
								{
									OFFSET 0 0 0
									CHANNELS 3 Zrotation Yrotation Xrotation
									JOINT LeftHandIndex1
									{
										OFFSET 0.48608 -0.00000 -0.00000
										CHANNELS 3 Zrotation Yrotation Xrotation
										End Site
										{
											OFFSET 0.39189 -0.00000 -0.00000
										}
									}
								}
								JOINT LThumb
								{
									OFFSET 0 0 0
									CHANNELS 3 Zrotation Yrotation Xrotation
									End Site
									{
										OFFSET 0.39787 -0.00000 0.39787
									}
								}
							}
						}
					}
				}
				JOINT RightShoulder
				{
					OFFSET 0 0 0
					CHANNELS 3 Zrotation Yrotation Xrotation
					JOINT RightArm
					{
						OFFSET -3.04136 1.42992 -0.76390
						CHANNELS 3 Zrotation Yrotation Xrotation
						JOINT RightForeArm
						{
							OFFSET -5.55576 -0.00000 -0.00000
							CHANNELS 3 Zrotation Yrotation Xrotation
							JOINT RightHand
							{
								OFFSET -3.32774 -0.00000 -0.00000
								CHANNELS 3 Zrotation Yrotation Xrotation
								JOINT RightFingerBase
								{
									OFFSET 0 0 0
									CHANNELS 3 Zrotation Yrotation Xrotation
									JOINT RightHandIndex1
									{
										OFFSET -0.50763 -0.00000 -0.00000
										CHANNELS 3 Zrotation Yrotation Xrotation
										End Site
										{
											OFFSET -0.40926 -0.00000 -0.00000
										}
									}
								}
								JOINT RThumb
								{
									OFFSET 0 0 0
									CHANNELS 3 Zrotation Yrotation Xrotation
									End Site
									{
										OFFSET -0.41551 -0.00000 0.41551
									}
								}
							}
						}
					}
				}
			}
		}
	}
}
MOTION
Frames: 15
Frame Time: 0.0606061
0.00 0.00 0.00 0 0 0 0 0 0 -21 0 0 0 0 0 0 0 0 0 0 0 0 0 0 21 0 0 0 0 0 0 0 0 0 0 0 0 0 0 0 0 0 0 0 0 0 0 -16 0 0 21 0 0 11 0 0 0 -8 0 0 0 0 0 0 0 0 0 0 0 0 0 0 0 0 0 0 0 0 8 0 0 0 0 0 0 0 0 0 0 0 0 0 0 0 0 0
0.00 0.00 0.00 -86.5568 -80.0655 95.7873 0.0000 0.0000 0.0000 -5.1279 -5.9283 -30.3069 7.9070 16.0504 52.2269 0.7429 -2.3748 -15.6508 0.6800 -5.2725 -14.6873 0.0000 0.0000 0.0000 34.5661 4.1154 -8.2660 -1.0457 -6.5031 18.2514 -0.0000 -0.0000 0.0000 -0.0000 -0.0000 0.0000 0.0000 0.0000 0.0000 0.0000 0.0000 0.0000 0.0000 0.0000 0.0000 0.0000 0.0000 0.0000 0.0000 0.0000 0.0000 0.0000 0.0000 0.0000 0.0000 0.0000 0.0000 -0.0000 0.0000 -0.0000 -0.0000 0.0000 -0.0000 -0.0000 -0.0000 0.0000 -0.0000 0.0000 0.0000 -0.0000 0.0000 0.0000 0.0000 0.0000 0.0000 0.0000 0.0000 0.0000 0.0000 -0.0000 -0.0000 0.0000 -0.0000 -0.0000 0.0000 0.0000 0.0000 0.0000 0.0000 0.0000 0.0000 0.0000 0.0000 0.0000 -0.0000 0.0000
0.00 0.00 0.00 -90.6426 -80.8922 102.2910 0.0000 0.0000 0.0000 -3.3558 -6.6255 -39.3526 4.4813 12.7747 38.5307 0.4187 3.3438 -13.9110 0.5462 -4.7346 -13.1531 0.0000 0.0000 0.0000 34.0989 5.4154 -3.8636 -0.5427 -4.7198 13.1111 -0.7590 -1.1953 -16.9325 -2.3119 -9.4877 27.3331 7.1083 0.9107 -0.7353 2.4459 1.1376 -0.9506 -1.4564 0.5071 -0.4776 -7.4488 -2.6504 -22.0351 5.7879 -2.3960 13.5464 2.8406 -0.9417 7.9455 -0.0000 0.0000 0.0000 -93.7850 2.0148 6.9716 18.5065 -28.8009 -4.7908 -0.0000 -0.0000 19.6222 14.7236 19.4029 4.9892 -7.1250 0.0000 -0.0000 -13.3661 49.5162 -1.5126 -0.0000 0.0000 0.0000 87.5030 4.3269 34.3234 -28.0647 39.1757 -10.1645 0.0000 0.0000 9.6759 -18.3320 -25.1430 8.0134 7.1250 -0.0000 -0.0000 12.2305 -55.8698 -3.2970
0.00 0.00 0.00 -94.0260 -80.3904 106.9010 0.0000 0.0000 0.0000 -0.8837 -9.2404 -36.6272 1.4762 7.6772 21.7379 0.0552 6.2990 -10.3090 0.4180 -4.1498 -11.4986 0.0000 0.0000 0.0000 33.8296 4.5069 -2.3094 -0.6156 -5.0216 13.9702 -0.8881 0.2649 -17.7275 -1.6961 -8.2022 23.3300 7.6458 1.4452 -1.0263 2.2074 1.8237 -1.0536 -1.9873 0.8474 -0.3443 -7.6181 -2.5020 -21.2075 5.8817 -2.1956 12.6858 2.9166 -0.8532 7.5101 -0.0000 -0.0000 0.0000 -94.5540 2.2381 9.6291 21.4320 -32.3291 -6.2793 -0.0000 -0.0000 16.9532 18.1627 21.1068 6.7376 -7.1250 0.0000 -0.0000 -10.6732 51.7791 -1.7987 -0.0000 -0.0000 0.0000 86.4987 6.5589 37.7458 -31.4987 42.1439 -12.4032 0.0000 0.0000 9.5776 -19.8115 -24.8204 8.5993 7.1250 -0.0000 -0.0000 10.5413 -55.8471 -2.8279
0.00 0.00 0.00 -86.3909 -82.0611 99.0425 0.0000 0.0000 0.0000 -4.7026 -10.9150 -31.5122 0.9082 6.0728 16.9959 -0.1252 6.8642 -5.5063 0.0684 -1.6868 -4.6408 0.0000 0.0000 0.0000 29.2052 2.5666 -5.0381 -2.6082 -10.0320 29.0804 -0.1924 -2.3857 -9.5199 -0.0431 -1.3406 3.6865 5.1795 1.7085 -1.1714 1.4849 2.2128 -1.1496 -1.3535 1.0650 -0.3873 -7.2776 -2.9746 -19.9688 6.2950 -3.1059 12.8075 2.8884 -1.2504 7.4127 0.0000 0.0000 0.0000 -93.9192 -1.2127 24.4312 25.8742 -37.0842 -8.8117 -0.0000 -0.0000 12.4886 21.0126 22.2896 8.2892 -7.1250 0.0000 -0.0000 -8.2598 53.4989 -1.7356 0.0000 0.0000 0.0000 86.9032 8.8179 40.1653 -40.8471 48.5639 -19.0719 0.0000 0.0000 12.3423 -25.7564 -23.8303 11.0307 7.1250 -0.0000 -0.0000 3.8459 -56.0621 -1.0447
0.00 0.00 0.00 -80.1891 -84.1700 91.3648 0.0000 0.0000 0.0000 -10.3229 -8.9979 -25.0343 0.8976 6.0384 16.8959 -0.0130 4.0395 -5.1901 0.0016 0.2606 0.7161 0.0000 0.0000 0.0000 24.4865 2.2793 -13.2528 -5.9397 -14.3696 44.7390 0.2539 -8.9904 -1.8823 -0.0014 -0.2391 0.6571 2.5134 1.4632 -0.7884 0.9574 1.9340 -1.0342 -0.4208 0.9482 -0.5674 -6.8543 -3.1226 -19.4466 6.2957 -3.5009 13.6567 2.7788 -1.4274 7.6267 0.0000 0.0000 0.0000 -93.0251 -5.3573 35.1473 27.7501 -38.8852 -9.9664 -0.0000 -0.0000 9.7401 20.8218 23.0567 8.4715 -7.1250 0.0000 -0.0000 -8.7463 54.2514 -2.0002 0.0000 0.0000 0.0000 87.4860 10.2818 42.6669 -45.7916 51.1504 -22.8536 0.0000 0.0000 15.7077 -28.6744 -22.2169 11.6836 7.1250 -0.0000 -0.0000 0.2287 -54.9429 -0.0558
0.00 0.00 0.00 -13.7564 -85.0336 23.1437 0.0000 0.0000 0.0000 -19.5080 -2.2750 1.3308 1.0797 6.6046 18.5492 0.5738 -3.8325 -13.5188 0.6369 -5.1059 -14.2109 0.0000 0.0000 0.0000 15.3052 8.2430 -35.8177 -1.1395 -6.7790 19.0624 0.8781 -16.4334 -8.2308 -0.1660 -2.6246 7.2353 -0.3049 -0.7894 -0.2478 1.4904 -1.0523 -1.4920 1.7075 -0.5188 -1.3555 -5.9211 -2.9814 -19.3085 5.2979 -3.5073 16.1608 2.3066 -1.4846 8.4036 0.0000 -0.0000 0.0000 -94.5502 -10.7199 53.5385 35.9295 -45.4646 -15.4722 -0.0000 -0.0000 7.9581 18.5597 22.9717 7.4653 -7.1250 0.0000 -0.0000 -11.0137 53.7352 -2.3879 0.0000 -0.0000 0.0000 83.3339 16.9898 48.9918 -72.5409 58.8163 -44.9400 0.0000 0.0000 21.3819 -22.0998 -15.6536 6.2525 7.1250 -0.0000 -0.0000 5.3069 -46.7375 -0.2282
0.00 0.00 0.00 -34.1349 -83.6292 42.8586 0.0000 0.0000 0.0000 -15.0613 -3.9207 -2.5937 3.3346 11.2180 33.0186 0.0427 -3.3093 -4.0532 1.2940 -7.2073 -20.3310 0.0000 0.0000 0.0000 19.8928 8.9181 -31.5551 -1.4682 -7.6572 21.6776 0.7673 -15.3493 -7.1647 -0.4417 -4.2645 11.8221 2.1752 -0.7244 0.1700 3.0365 -0.9594 -1.1305 1.9073 -0.5040 -1.2375 -5.6903 -3.1445 -19.6545 4.4864 -3.5997 16.0543 1.9781 -1.5913 8.4126 -0.0000 0.0000 0.0000 -94.4537 -1.8605 50.2009 35.5323 -45.1885 -15.1897 -0.0000 -0.0000 9.2420 18.5126 22.7097 7.3657 -7.1250 0.0000 -0.0000 -10.9524 53.4621 -2.3009 -0.0000 0.0000 0.0000 81.0592 12.8591 48.5389 -76.8999 59.3415 -48.6800 0.0000 0.0000 21.2973 -21.0335 -15.9016 6.0143 7.1250 -0.0000 -0.0000 6.3637 -46.8530 -0.2921
0.00 0.00 0.00 -48.1587 -81.4215 56.2196 0.0000 0.0000 0.0000 -9.2486 -6.8915 -13.2648 7.0656 15.3869 49.1220 0.0062 -1.1892 2.3883 1.1639 -6.8489 -19.2683 0.0000 0.0000 0.0000 25.7372 8.0098 -23.3513 -1.4129 -7.5178 21.2589 0.6157 -14.1914 -9.0788 -0.6108 -5.0020 13.9142 4.8363 -0.1991 0.4975 4.3880 -0.2803 -0.6565 1.8048 -0.2001 -0.9531 -5.8605 -3.8120 -19.4201 4.4951 -4.4664 15.6967 1.8951 -2.0118 8.3030 -0.0000 0.0000 0.0000 -93.3583 4.9967 47.8477 35.9009 -45.4448 -15.4519 -0.0000 -0.0000 9.9665 18.4028 21.5184 6.9579 -7.1250 0.0000 -0.0000 -10.5909 52.2375 -1.9044 -0.0000 0.0000 0.0000 79.7003 6.9610 47.3586 -79.9890 59.6179 -51.3413 0.0000 0.0000 20.5138 -20.9786 -17.0965 6.4314 7.1250 -0.0000 -0.0000 6.7028 -48.0977 -0.5144
0.00 0.00 0.00 -69.1111 -81.8701 76.4835 0.0000 0.0000 0.0000 -4.3094 -8.9319 -29.2646 1.2599 7.1153 20.0575 -0.0433 4.3434 -4.0210 0.1172 -2.2068 -6.0776 0.0000 0.0000 0.0000 27.7340 -0.5761 -5.3320 -4.0701 -12.2531 36.6334 0.3428 -12.5796 -12.3189 -0.1672 2.6342 -7.2620 4.6047 1.7688 0.5391 2.8034 2.3478 -0.0632 0.2820 1.1455 -0.2986 -7.7400 -5.0376 -17.0625 7.5690 -6.2571 13.0717 3.0230 -2.7235 7.2969 -0.0000 0.0000 0.0000 -91.9928 3.4399 38.7205 45.6589 -51.0872 -22.7503 -0.0000 -0.0000 11.2602 18.9734 22.9511 7.6359 -7.1250 0.0000 -0.0000 -10.5870 53.7918 -2.3084 -0.0000 0.0000 0.0000 83.3112 -0.9243 49.5048 -83.0429 59.8163 -53.9787 0.0000 0.0000 21.3086 -18.4459 -15.6538 5.1427 7.1250 -0.0000 -0.0000 8.7164 -46.2505 -0.2710
0.00 0.00 0.00 -60.0911 -84.2441 66.5614 0.0000 0.0000 0.0000 -9.9727 -5.9515 -24.2377 1.7557 8.3375 23.7438 0.0791 0.7795 -5.6574 0.0103 -0.6554 -1.8010 0.0000 0.0000 0.0000 22.6408 -2.1798 -16.3783 -7.8791 -16.0296 52.1260 0.9012 -16.5411 -6.9756 -0.0001 -0.0667 0.1834 1.2442 1.2270 0.4604 1.4599 1.6396 -0.1595 0.7835 0.8140 -0.4290 -7.9727 -4.8000 -16.0866 8.5356 -6.0819 12.4171 3.4124 -2.5985 6.9454 0.0000 0.0000 0.0000 -92.1143 -4.2719 46.1124 45.1628 -50.8480 -22.3650 -0.0000 -0.0000 9.8261 19.3996 23.8595 8.1068 -7.1250 0.0000 -0.0000 -10.5374 54.7929 -2.5558 0.0000 0.0000 0.0000 82.1854 4.3791 50.0287 -84.5952 59.8893 -55.3211 0.0000 0.0000 21.3754 -17.9035 -15.0062 4.7815 7.1250 -0.0000 -0.0000 9.0541 -45.5158 -0.1162
0.00 0.00 0.00 11.4087 -83.4245 -3.6940 0.0000 0.0000 0.0000 -17.7969 0.1897 -3.4420 1.5549 7.8699 22.3197 0.5903 -3.8768 -13.7129 0.8385 -5.8411 -16.3240 0.0000 0.0000 0.0000 12.9855 2.9917 -35.7990 -1.3717 -7.4121 20.9423 1.3839 -20.4987 -11.0813 -0.3559 -3.8327 10.6065 -3.4007 -2.1845 -0.3226 0.6206 -2.9316 -1.4771 2.5549 -1.4286 -1.1328 -7.9117 -4.2026 -16.3291 9.4863 -5.1503 8.4438 3.7979 -2.1041 5.6705 0.0000 -0.0000 0.0000 -104.7896 -48.7828 78.5908 52.9203 -54.1075 -28.5235 -0.0000 0.0000 -1.3408 18.1012 27.9108 8.6993 -7.1250 0.0000 -0.0000 -13.9765 58.5613 -4.6934 0.0000 -0.0000 0.0000 61.3161 44.4970 41.5527 -88.6122 59.9927 -58.7982 0.0000 0.0000 13.1781 -21.4490 -18.3142 7.0378 7.1250 -0.0000 -0.0000 6.5682 -49.4436 -0.7225
0.00 0.00 0.00 -5.2135 -85.8419 11.9213 0.0000 0.0000 0.0000 -14.0903 -1.9156 -5.0071 4.3097 12.5616 37.7487 0.0338 -1.9023 -3.3288 1.9567 -8.7754 -25.0952 0.0000 0.0000 0.0000 16.5205 7.0528 -29.9328 -1.3908 -7.4613 21.0896 1.4250 -20.5632 -8.3473 -0.8824 -5.9883 16.7504 0.4995 -2.6319 -0.4417 3.0750 -3.5102 -2.1448 2.9144 -1.7572 -1.7902 -6.3258 -3.3155 -18.2426 6.7860 -3.8305 8.4397 2.7951 -1.5638 5.7636 -0.0000 0.0000 0.0000 -104.6226 -67.7908 73.1204 50.3124 -53.1207 -26.4238 -0.0000 -0.0000 12.0286 24.1986 22.8741 9.9085 -7.1250 0.0000 -0.0000 -5.1772 54.7274 -1.2395 -0.0000 0.0000 0.0000 46.2539 63.3812 23.3104 -72.1974 58.7679 -44.6463 0.0000 0.0000 9.9655 -22.2437 -18.1133 7.2464 7.1250 -0.0000 -0.0000 5.7447 -49.3576 -0.6191
0.00 0.00 0.00 -109.5560 -87.0172 116.1240 0.0000 0.0000 0.0000 -11.5858 -3.9615 -14.5590 7.2672 15.5528 49.8777 0.0061 0.5924 1.3864 1.3620 -7.3868 -20.8664 0.0000 0.0000 0.0000 22.3127 8.5749 -21.3648 -1.3793 -7.4316 21.0006 0.8858 -16.5626 -8.7880 -0.8557 -5.8994 16.4929 4.5275 -1.7948 -0.0796 5.4712 -2.3889 -2.5259 3.1651 -1.2981 -2.5086 -5.0243 -2.7388 -19.3395 4.7821 -3.0466 8.1612 2.0175 -1.2813 5.7379 0.0000 -0.0000 0.0000 -96.0702 -82.4112 58.0007 39.1106 -47.5341 -17.7804 -0.0000 -0.0000 25.0969 29.5454 22.5378 12.2575 -7.1250 0.0000 -0.0000 0.6375 55.4806 0.1640 0.0000 -0.0000 0.0000 28.0483 74.6762 1.0172 -51.0936 53.4272 -27.0500 0.0000 0.0000 10.6934 -25.0391 -18.2052 8.3034 7.1250 -0.0000 -0.0000 3.0314 -49.9064 -0.3670
0.00 0.00 0.00 -142.7530 -83.7051 149.8400 0.0000 0.0000 0.0000 -11.2448 -4.8566 -21.2198 7.2080 15.5045 49.6565 -0.0135 2.1991 -1.6247 0.9578 -6.2319 -17.4587 0.0000 0.0000 0.0000 24.5712 9.0329 -15.7823 -1.1322 -6.7579 19.0001 0.5760 -13.9950 -9.8576 -0.6118 -5.0062 13.9263 6.1229 -1.0296 0.3330 6.6886 -1.3610 -2.6464 3.5473 -0.8504 -2.9019 -4.5377 -2.5698 -19.6698 4.0386 -2.8291 7.8951 1.7219 -1.2174 5.6740 0.0000 0.0000 0.0000 -84.3908 -89.7116 43.9213 31.2191 -41.9157 -12.2159 -0.0000 -0.0000 30.5019 29.0612 21.3513 11.4379 -7.1250 0.0000 -0.0000 0.3877 54.0744 0.0865 0.0000 0.0000 0.0000 14.9171 79.4175 -15.9511 -40.4991 48.3628 -18.8114 0.0000 0.0000 12.3968 -25.3815 -17.6343 8.1789 7.1250 -0.0000 -0.0000 2.5730 -49.3465 -0.2759
